<mxfile host="www.draw.io" modified="2020-03-11T09:47:11.138Z" agent="Mozilla/5.0 (Windows NT 10.0; Win64; x64) AppleWebKit/537.36 (KHTML, like Gecko) Chrome/80.0.3987.132 Safari/537.36" etag="vzhwj2e5zh7xDjE3B6k4" version="12.8.2" type="github">
  <diagram id="3QHnCN-k6NhU4_bwdGHg" name="Page-1">
    <mxGraphModel dx="1193" dy="451" grid="1" gridSize="10" guides="1" tooltips="1" connect="1" arrows="1" fold="1" page="1" pageScale="1" pageWidth="827" pageHeight="1169" math="0" shadow="0">
      <root>
        <mxCell id="0" />
        <mxCell id="1" parent="0" />
        <mxCell id="ZfCo_OoU29fC2qvR1BW2-60" style="edgeStyle=orthogonalEdgeStyle;rounded=0;orthogonalLoop=1;jettySize=auto;html=1;exitX=0.5;exitY=1;exitDx=0;exitDy=0;entryX=0.5;entryY=0;entryDx=0;entryDy=0;" parent="1" source="ZfCo_OoU29fC2qvR1BW2-2" target="ZfCo_OoU29fC2qvR1BW2-3" edge="1">
          <mxGeometry relative="1" as="geometry">
            <Array as="points">
              <mxPoint x="71" y="158" />
              <mxPoint x="48" y="158" />
            </Array>
          </mxGeometry>
        </mxCell>
        <mxCell id="ZfCo_OoU29fC2qvR1BW2-61" style="edgeStyle=orthogonalEdgeStyle;rounded=0;orthogonalLoop=1;jettySize=auto;html=1;exitX=0.5;exitY=1;exitDx=0;exitDy=0;entryX=0.5;entryY=0;entryDx=0;entryDy=0;" parent="1" source="ZfCo_OoU29fC2qvR1BW2-2" target="ZfCo_OoU29fC2qvR1BW2-4" edge="1">
          <mxGeometry relative="1" as="geometry">
            <Array as="points">
              <mxPoint x="71" y="158" />
              <mxPoint x="157" y="158" />
            </Array>
          </mxGeometry>
        </mxCell>
        <mxCell id="ZfCo_OoU29fC2qvR1BW2-2" value="Définition du projet, des objectifs et des fonctionnalités" style="html=1;whiteSpace=wrap;;fontSize=11;fontColor=#333333;align=center;spacing=5;strokeColor=#333333;strokeOpacity=100;fillOpacity=100;rounded=1;absoluteArcSize=1;arcSize=9.6;fillColor=#FFF2CC;strokeWidth=0.6;" parent="1" vertex="1">
          <mxGeometry x="23" y="88" width="96" height="58" as="geometry" />
        </mxCell>
        <mxCell id="ZfCo_OoU29fC2qvR1BW2-63" style="edgeStyle=orthogonalEdgeStyle;rounded=0;orthogonalLoop=1;jettySize=auto;html=1;exitX=0.5;exitY=1;exitDx=0;exitDy=0;entryX=0.5;entryY=0;entryDx=0;entryDy=0;" parent="1" source="ZfCo_OoU29fC2qvR1BW2-3" target="ZfCo_OoU29fC2qvR1BW2-15" edge="1">
          <mxGeometry relative="1" as="geometry">
            <Array as="points">
              <mxPoint x="48" y="258" />
              <mxPoint x="179" y="258" />
            </Array>
          </mxGeometry>
        </mxCell>
        <mxCell id="ZfCo_OoU29fC2qvR1BW2-106" style="edgeStyle=orthogonalEdgeStyle;rounded=0;orthogonalLoop=1;jettySize=auto;html=1;exitX=0.5;exitY=1;exitDx=0;exitDy=0;entryX=0.5;entryY=0;entryDx=0;entryDy=0;" parent="1" source="ZfCo_OoU29fC2qvR1BW2-3" target="ZfCo_OoU29fC2qvR1BW2-13" edge="1">
          <mxGeometry relative="1" as="geometry" />
        </mxCell>
        <mxCell id="ZfCo_OoU29fC2qvR1BW2-3" value="Design préliminaire du robot à l&#39;aide de logiciel de CAO" style="html=1;whiteSpace=wrap;;fontSize=11;fontColor=#333333;align=center;spacing=5;strokeColor=#333333;strokeOpacity=100;fillOpacity=100;rounded=1;absoluteArcSize=1;arcSize=9.6;fillColor=#EAFFE9;strokeWidth=0.6;shadow=0;" parent="1" vertex="1">
          <mxGeometry y="182" width="95" height="66" as="geometry" />
        </mxCell>
        <mxCell id="ZfCo_OoU29fC2qvR1BW2-108" style="edgeStyle=orthogonalEdgeStyle;rounded=0;orthogonalLoop=1;jettySize=auto;html=1;exitX=1;exitY=0.5;exitDx=0;exitDy=0;entryX=0;entryY=0.5;entryDx=0;entryDy=0;" parent="1" source="ZfCo_OoU29fC2qvR1BW2-4" target="ZfCo_OoU29fC2qvR1BW2-12" edge="1">
          <mxGeometry relative="1" as="geometry" />
        </mxCell>
        <mxCell id="ZfCo_OoU29fC2qvR1BW2-4" value="Choix de la fixation du robot (base)" style="html=1;whiteSpace=wrap;;fontSize=11;fontColor=#333333;align=center;spacing=5;strokeColor=#333333;strokeOpacity=100;fillOpacity=100;rounded=1;absoluteArcSize=1;arcSize=9.6;fillColor=#EAFFE9;strokeWidth=0.6;" parent="1" vertex="1">
          <mxGeometry x="119" y="182" width="76" height="50" as="geometry" />
        </mxCell>
        <mxCell id="ZfCo_OoU29fC2qvR1BW2-5" value="Création d&#39;un environnement de développement sur Visual Studio" style="html=1;whiteSpace=wrap;;fontSize=11;fontColor=#333333;align=center;spacing=5;strokeColor=#333333;strokeOpacity=100;fillOpacity=100;rounded=1;absoluteArcSize=1;arcSize=9.6;fillColor=#FFD966;strokeWidth=0.6;" parent="1" vertex="1">
          <mxGeometry x="359" y="10" width="106" height="60" as="geometry" />
        </mxCell>
        <mxCell id="ZfCo_OoU29fC2qvR1BW2-6" value="Choix d&#39;une license adéquate &quot;Open-Source&quot;" style="html=1;whiteSpace=wrap;;fontSize=11;fontColor=#333333;align=center;spacing=5;strokeColor=#333333;strokeOpacity=100;fillOpacity=100;rounded=1;absoluteArcSize=1;arcSize=9.6;fillColor=#FFF2CC;strokeWidth=0.6;" parent="1" vertex="1">
          <mxGeometry x="23" y="10" width="96" height="60" as="geometry" />
        </mxCell>
        <mxCell id="ZfCo_OoU29fC2qvR1BW2-7" value="Création d&#39;un GitHub pour conserver la documentation" style="html=1;whiteSpace=wrap;;fontSize=11;fontColor=#333333;align=center;spacing=5;strokeColor=#333333;strokeOpacity=100;fillOpacity=100;rounded=1;absoluteArcSize=1;arcSize=9.6;fillColor=#FFD966;strokeWidth=0.6;" parent="1" vertex="1">
          <mxGeometry x="245" y="10" width="96" height="60" as="geometry" />
        </mxCell>
        <mxCell id="ZfCo_OoU29fC2qvR1BW2-8" value="Création d&#39;un ZenHub pour permettre la méthode agile" style="html=1;whiteSpace=wrap;;fontSize=11;fontColor=#333333;align=center;spacing=5;strokeColor=#333333;strokeOpacity=100;fillOpacity=100;rounded=1;absoluteArcSize=1;arcSize=9.6;fillColor=#FFD966;strokeWidth=0.6;" parent="1" vertex="1">
          <mxGeometry x="486" y="10" width="96" height="60" as="geometry" />
        </mxCell>
        <mxCell id="ZfCo_OoU29fC2qvR1BW2-67" style="edgeStyle=orthogonalEdgeStyle;rounded=0;orthogonalLoop=1;jettySize=auto;html=1;exitX=1;exitY=0.5;exitDx=0;exitDy=0;entryX=0.5;entryY=1;entryDx=0;entryDy=0;" parent="1" source="ZfCo_OoU29fC2qvR1BW2-9" target="ZfCo_OoU29fC2qvR1BW2-11" edge="1">
          <mxGeometry relative="1" as="geometry" />
        </mxCell>
        <mxCell id="ZfCo_OoU29fC2qvR1BW2-78" style="edgeStyle=orthogonalEdgeStyle;rounded=0;orthogonalLoop=1;jettySize=auto;html=1;exitX=0.5;exitY=1;exitDx=0;exitDy=0;entryX=0.5;entryY=0;entryDx=0;entryDy=0;" parent="1" source="ZfCo_OoU29fC2qvR1BW2-9" target="ZfCo_OoU29fC2qvR1BW2-21" edge="1">
          <mxGeometry relative="1" as="geometry" />
        </mxCell>
        <mxCell id="ZfCo_OoU29fC2qvR1BW2-9" value="Branchement des moteurs et de l&#39;électroaimant à la carte OpenCr" style="html=1;whiteSpace=wrap;;fontSize=11;fontColor=#333333;align=center;spacing=5;strokeColor=#333333;strokeOpacity=100;fillOpacity=100;rounded=1;absoluteArcSize=1;arcSize=9.6;fillColor=#FF9999;strokeWidth=0.6;" parent="1" vertex="1">
          <mxGeometry x="276" y="372" width="96" height="72" as="geometry" />
        </mxCell>
        <mxCell id="ZfCo_OoU29fC2qvR1BW2-66" style="edgeStyle=orthogonalEdgeStyle;rounded=0;orthogonalLoop=1;jettySize=auto;html=1;exitX=1;exitY=0.5;exitDx=0;exitDy=0;entryX=0;entryY=0.5;entryDx=0;entryDy=0;" parent="1" source="ZfCo_OoU29fC2qvR1BW2-10" target="ZfCo_OoU29fC2qvR1BW2-9" edge="1">
          <mxGeometry relative="1" as="geometry" />
        </mxCell>
        <mxCell id="ZfCo_OoU29fC2qvR1BW2-10" value="Sélection des moteurs utilisés " style="html=1;whiteSpace=wrap;;fontSize=11;fontColor=#333333;align=center;spacing=5;strokeColor=#333333;strokeOpacity=100;fillOpacity=100;rounded=1;absoluteArcSize=1;arcSize=9.6;fillColor=#FFCCCC;strokeWidth=0.6;" parent="1" vertex="1">
          <mxGeometry x="12" y="446" width="89" height="36" as="geometry" />
        </mxCell>
        <mxCell id="ZfCo_OoU29fC2qvR1BW2-74" style="edgeStyle=orthogonalEdgeStyle;rounded=0;orthogonalLoop=1;jettySize=auto;html=1;exitX=1;exitY=0.5;exitDx=0;exitDy=0;entryX=0;entryY=0.5;entryDx=0;entryDy=0;" parent="1" source="ZfCo_OoU29fC2qvR1BW2-11" target="ZfCo_OoU29fC2qvR1BW2-48" edge="1">
          <mxGeometry relative="1" as="geometry" />
        </mxCell>
        <mxCell id="ZfCo_OoU29fC2qvR1BW2-11" value="Assemblage des pièces du robot" style="html=1;whiteSpace=wrap;;fontSize=11;fontColor=#333333;align=center;spacing=5;strokeColor=#333333;strokeOpacity=100;fillOpacity=100;rounded=1;absoluteArcSize=1;arcSize=9.6;fillColor=#B9E0A5;strokeWidth=0.6;" parent="1" vertex="1">
          <mxGeometry x="414" y="250" width="76" height="48" as="geometry" />
        </mxCell>
        <mxCell id="ZfCo_OoU29fC2qvR1BW2-73" style="edgeStyle=orthogonalEdgeStyle;rounded=0;orthogonalLoop=1;jettySize=auto;html=1;exitX=1;exitY=0.5;exitDx=0;exitDy=0;entryX=0;entryY=0.5;entryDx=0;entryDy=0;" parent="1" source="ZfCo_OoU29fC2qvR1BW2-12" target="ZfCo_OoU29fC2qvR1BW2-48" edge="1">
          <mxGeometry relative="1" as="geometry" />
        </mxCell>
        <mxCell id="ZfCo_OoU29fC2qvR1BW2-12" value="Assemblage de la base" style="html=1;whiteSpace=wrap;;fontSize=11;fontColor=#333333;align=center;spacing=5;strokeColor=#333333;strokeOpacity=100;fillOpacity=100;rounded=1;absoluteArcSize=1;arcSize=9.6;fillColor=#B9E0A5;strokeWidth=0.6;" parent="1" vertex="1">
          <mxGeometry x="414" y="185" width="76" height="44" as="geometry" />
        </mxCell>
        <mxCell id="ZfCo_OoU29fC2qvR1BW2-64" style="edgeStyle=orthogonalEdgeStyle;rounded=0;orthogonalLoop=1;jettySize=auto;html=1;exitX=0.5;exitY=1;exitDx=0;exitDy=0;entryX=0.5;entryY=0;entryDx=0;entryDy=0;" parent="1" source="ZfCo_OoU29fC2qvR1BW2-13" target="ZfCo_OoU29fC2qvR1BW2-14" edge="1">
          <mxGeometry relative="1" as="geometry" />
        </mxCell>
        <mxCell id="ZfCo_OoU29fC2qvR1BW2-13" value="Sélection d&#39;un effecteur" style="html=1;whiteSpace=wrap;;fontSize=11;fontColor=#333333;align=center;spacing=5;strokeColor=#333333;strokeOpacity=100;fillOpacity=100;rounded=1;absoluteArcSize=1;arcSize=9.6;fillColor=#EAFFE9;strokeWidth=0.6;" parent="1" vertex="1">
          <mxGeometry x="19" y="305.5" width="58" height="45" as="geometry" />
        </mxCell>
        <mxCell id="ZfCo_OoU29fC2qvR1BW2-107" style="edgeStyle=orthogonalEdgeStyle;rounded=0;orthogonalLoop=1;jettySize=auto;html=1;exitX=1;exitY=0.5;exitDx=0;exitDy=0;entryX=0.5;entryY=1;entryDx=0;entryDy=0;" parent="1" source="ZfCo_OoU29fC2qvR1BW2-14" target="ZfCo_OoU29fC2qvR1BW2-15" edge="1">
          <mxGeometry relative="1" as="geometry" />
        </mxCell>
        <mxCell id="ZfCo_OoU29fC2qvR1BW2-14" value="Design d&#39;un support pour l&#39;effecteur sélectionné" style="html=1;whiteSpace=wrap;;fontSize=11;fontColor=#333333;align=center;spacing=5;strokeColor=#333333;strokeOpacity=100;fillOpacity=100;rounded=1;absoluteArcSize=1;arcSize=9.6;fillColor=#EAFFE9;strokeWidth=0.6;" parent="1" vertex="1">
          <mxGeometry x="12" y="372" width="84" height="61" as="geometry" />
        </mxCell>
        <mxCell id="ZfCo_OoU29fC2qvR1BW2-68" style="edgeStyle=orthogonalEdgeStyle;rounded=0;orthogonalLoop=1;jettySize=auto;html=1;exitX=1;exitY=0.5;exitDx=0;exitDy=0;entryX=0;entryY=0.5;entryDx=0;entryDy=0;" parent="1" source="ZfCo_OoU29fC2qvR1BW2-15" target="ZfCo_OoU29fC2qvR1BW2-47" edge="1">
          <mxGeometry relative="1" as="geometry" />
        </mxCell>
        <mxCell id="ZfCo_OoU29fC2qvR1BW2-69" style="edgeStyle=orthogonalEdgeStyle;rounded=0;orthogonalLoop=1;jettySize=auto;html=1;exitX=1;exitY=0.5;exitDx=0;exitDy=0;entryX=0;entryY=0.5;entryDx=0;entryDy=0;" parent="1" source="ZfCo_OoU29fC2qvR1BW2-15" target="ZfCo_OoU29fC2qvR1BW2-23" edge="1">
          <mxGeometry relative="1" as="geometry">
            <Array as="points">
              <mxPoint x="265" y="330" />
              <mxPoint x="265" y="330" />
            </Array>
          </mxGeometry>
        </mxCell>
        <mxCell id="ZfCo_OoU29fC2qvR1BW2-15" value="Choix des matériaux et procédés utilisés" style="html=1;whiteSpace=wrap;shape=hexagon;perimeter=hexagonPerimeter2;fontSize=11;fontColor=#333333;align=center;spacing=5;strokeColor=#333333;strokeOpacity=100;fillOpacity=100;rounded=1;absoluteArcSize=1;arcSize=9.6;fillColor=#EAFFE9;strokeWidth=0.6;" parent="1" vertex="1">
          <mxGeometry x="119" y="305.5" width="120" height="50" as="geometry" />
        </mxCell>
        <mxCell id="ZfCo_OoU29fC2qvR1BW2-81" style="edgeStyle=orthogonalEdgeStyle;rounded=0;orthogonalLoop=1;jettySize=auto;html=1;exitX=1;exitY=0.5;exitDx=0;exitDy=0;" parent="1" source="ZfCo_OoU29fC2qvR1BW2-16" target="ZfCo_OoU29fC2qvR1BW2-20" edge="1">
          <mxGeometry relative="1" as="geometry" />
        </mxCell>
        <mxCell id="ZfCo_OoU29fC2qvR1BW2-16" value="Recherche de librairies python " style="html=1;whiteSpace=wrap;shape=hexagon;perimeter=hexagonPerimeter2;fontSize=11;fontColor=#333333;align=center;spacing=5;strokeColor=#333333;strokeOpacity=100;fillOpacity=100;rounded=1;absoluteArcSize=1;arcSize=9.6;fillColor=#CCE5FF;strokeWidth=0.6;" parent="1" vertex="1">
          <mxGeometry x="149.5" y="538" width="96" height="60" as="geometry" />
        </mxCell>
        <mxCell id="ZfCo_OoU29fC2qvR1BW2-79" style="edgeStyle=orthogonalEdgeStyle;rounded=0;orthogonalLoop=1;jettySize=auto;html=1;exitX=1;exitY=0.5;exitDx=0;exitDy=0;" parent="1" source="ZfCo_OoU29fC2qvR1BW2-17" target="ZfCo_OoU29fC2qvR1BW2-16" edge="1">
          <mxGeometry relative="1" as="geometry" />
        </mxCell>
        <mxCell id="ZfCo_OoU29fC2qvR1BW2-17" value="Sélection des fonctionnalités de l&#39;interface graphique" style="html=1;whiteSpace=wrap;;fontSize=11;fontColor=#333333;align=center;spacing=5;strokeColor=#333333;strokeOpacity=100;fillOpacity=100;rounded=1;absoluteArcSize=1;arcSize=9.6;fillColor=#CCE5FF;strokeWidth=0.6;" parent="1" vertex="1">
          <mxGeometry x="6.5" y="538" width="96" height="60" as="geometry" />
        </mxCell>
        <mxCell id="ZfCo_OoU29fC2qvR1BW2-120" style="edgeStyle=orthogonalEdgeStyle;rounded=0;orthogonalLoop=1;jettySize=auto;html=1;exitX=0.5;exitY=1;exitDx=0;exitDy=0;entryX=0;entryY=0.5;entryDx=0;entryDy=0;" parent="1" source="ZfCo_OoU29fC2qvR1BW2-18" target="ZfCo_OoU29fC2qvR1BW2-111" edge="1">
          <mxGeometry relative="1" as="geometry">
            <Array as="points">
              <mxPoint x="75" y="1002" />
              <mxPoint x="75" y="1040" />
            </Array>
          </mxGeometry>
        </mxCell>
        <mxCell id="ZfCo_OoU29fC2qvR1BW2-18" value="Recherches de librairies pour la vision" style="html=1;whiteSpace=wrap;shape=hexagon;perimeter=hexagonPerimeter2;fontSize=11;fontColor=#333333;align=center;spacing=5;strokeColor=#333333;strokeOpacity=100;fillOpacity=100;rounded=1;absoluteArcSize=1;arcSize=9.6;fillColor=#CCE5FF;strokeWidth=0.6;" parent="1" vertex="1">
          <mxGeometry x="23" y="930" width="96" height="72" as="geometry" />
        </mxCell>
        <mxCell id="ZfCo_OoU29fC2qvR1BW2-82" style="edgeStyle=orthogonalEdgeStyle;rounded=0;orthogonalLoop=1;jettySize=auto;html=1;exitX=0;exitY=0.5;exitDx=0;exitDy=0;" parent="1" source="ZfCo_OoU29fC2qvR1BW2-19" target="ZfCo_OoU29fC2qvR1BW2-18" edge="1">
          <mxGeometry relative="1" as="geometry" />
        </mxCell>
        <mxCell id="ZfCo_OoU29fC2qvR1BW2-122" style="edgeStyle=orthogonalEdgeStyle;rounded=0;orthogonalLoop=1;jettySize=auto;html=1;exitX=1;exitY=0.5;exitDx=0;exitDy=0;" parent="1" source="ZfCo_OoU29fC2qvR1BW2-19" target="ZfCo_OoU29fC2qvR1BW2-121" edge="1">
          <mxGeometry relative="1" as="geometry" />
        </mxCell>
        <mxCell id="ZfCo_OoU29fC2qvR1BW2-19" value="Acquisition d&#39;une caméra pour la vision" style="html=1;whiteSpace=wrap;shape=hexagon;perimeter=hexagonPerimeter2;fontSize=11;fontColor=#333333;align=center;spacing=5;strokeColor=#333333;strokeOpacity=100;fillOpacity=100;rounded=1;absoluteArcSize=1;arcSize=9.6;fillColor=#99CCFF;strokeWidth=0.6;" parent="1" vertex="1">
          <mxGeometry x="215" y="930" width="112" height="72" as="geometry" />
        </mxCell>
        <mxCell id="ZfCo_OoU29fC2qvR1BW2-92" style="edgeStyle=orthogonalEdgeStyle;rounded=0;orthogonalLoop=1;jettySize=auto;html=1;exitX=1;exitY=0.5;exitDx=0;exitDy=0;entryX=0;entryY=0.5;entryDx=0;entryDy=0;" parent="1" source="ZfCo_OoU29fC2qvR1BW2-20" target="ZfCo_OoU29fC2qvR1BW2-49" edge="1">
          <mxGeometry relative="1" as="geometry" />
        </mxCell>
        <mxCell id="ZfCo_OoU29fC2qvR1BW2-20" value="Programmation de l&#39;interface graphique" style="html=1;whiteSpace=wrap;;fontSize=11;fontColor=#333333;align=center;spacing=5;strokeColor=#333333;strokeOpacity=100;fillOpacity=100;rounded=1;absoluteArcSize=1;arcSize=9.6;fillColor=#99CCFF;strokeWidth=0.6;" parent="1" vertex="1">
          <mxGeometry x="280" y="545" width="96" height="46" as="geometry" />
        </mxCell>
        <mxCell id="ZfCo_OoU29fC2qvR1BW2-77" style="edgeStyle=orthogonalEdgeStyle;rounded=0;orthogonalLoop=1;jettySize=auto;html=1;exitX=1;exitY=0.5;exitDx=0;exitDy=0;entryX=0;entryY=0.5;entryDx=0;entryDy=0;" parent="1" source="ZfCo_OoU29fC2qvR1BW2-21" target="ZfCo_OoU29fC2qvR1BW2-22" edge="1">
          <mxGeometry relative="1" as="geometry" />
        </mxCell>
        <mxCell id="ZfCo_OoU29fC2qvR1BW2-84" style="edgeStyle=orthogonalEdgeStyle;rounded=0;orthogonalLoop=1;jettySize=auto;html=1;exitX=0.5;exitY=1;exitDx=0;exitDy=0;entryX=0;entryY=0.5;entryDx=0;entryDy=0;" parent="1" source="ZfCo_OoU29fC2qvR1BW2-21" target="ZfCo_OoU29fC2qvR1BW2-49" edge="1">
          <mxGeometry relative="1" as="geometry">
            <Array as="points">
              <mxPoint x="324" y="528" />
              <mxPoint x="455" y="528" />
              <mxPoint x="455" y="568" />
            </Array>
          </mxGeometry>
        </mxCell>
        <mxCell id="ZfCo_OoU29fC2qvR1BW2-21" value="Configuration des moteurs" style="html=1;whiteSpace=wrap;;fontSize=11;fontColor=#333333;align=center;spacing=5;strokeColor=#333333;strokeOpacity=100;fillOpacity=100;rounded=1;absoluteArcSize=1;arcSize=9.6;fillColor=#99CCFF;strokeWidth=0.6;" parent="1" vertex="1">
          <mxGeometry x="279.5" y="458" width="89" height="32" as="geometry" />
        </mxCell>
        <mxCell id="ZfCo_OoU29fC2qvR1BW2-76" style="edgeStyle=orthogonalEdgeStyle;rounded=0;orthogonalLoop=1;jettySize=auto;html=1;exitX=1;exitY=0.5;exitDx=0;exitDy=0;entryX=0;entryY=0.5;entryDx=0;entryDy=0;" parent="1" source="ZfCo_OoU29fC2qvR1BW2-22" target="ZfCo_OoU29fC2qvR1BW2-52" edge="1">
          <mxGeometry relative="1" as="geometry">
            <Array as="points">
              <mxPoint x="585" y="474" />
              <mxPoint x="585" y="363" />
            </Array>
          </mxGeometry>
        </mxCell>
        <mxCell id="ZfCo_OoU29fC2qvR1BW2-22" value="Programmation d&#39;une routine d&#39;initialisation des trois moteurs" style="html=1;whiteSpace=wrap;;fontSize=11;fontColor=#333333;align=center;spacing=5;strokeColor=#333333;strokeOpacity=100;fillOpacity=100;rounded=1;absoluteArcSize=1;arcSize=9.6;fillColor=#99CCFF;strokeWidth=0.6;" parent="1" vertex="1">
          <mxGeometry x="425" y="438" width="96" height="72" as="geometry" />
        </mxCell>
        <mxCell id="ZfCo_OoU29fC2qvR1BW2-71" style="edgeStyle=orthogonalEdgeStyle;rounded=0;orthogonalLoop=1;jettySize=auto;html=1;exitX=1;exitY=0.5;exitDx=0;exitDy=0;entryX=0;entryY=0.5;entryDx=0;entryDy=0;" parent="1" source="ZfCo_OoU29fC2qvR1BW2-23" target="ZfCo_OoU29fC2qvR1BW2-11" edge="1">
          <mxGeometry relative="1" as="geometry">
            <Array as="points">
              <mxPoint x="395" y="331" />
              <mxPoint x="395" y="274" />
            </Array>
          </mxGeometry>
        </mxCell>
        <mxCell id="ZfCo_OoU29fC2qvR1BW2-23" value="Prototypage rapide des pièces par impression 3D" style="html=1;whiteSpace=wrap;;fontSize=11;fontColor=#333333;align=center;spacing=5;strokeColor=#333333;strokeOpacity=100;fillOpacity=100;rounded=1;absoluteArcSize=1;arcSize=9.6;fillColor=#B9E0A5;strokeWidth=0.6;" parent="1" vertex="1">
          <mxGeometry x="279.5" y="305.5" width="98" height="50" as="geometry" />
        </mxCell>
        <mxCell id="ZfCo_OoU29fC2qvR1BW2-70" style="edgeStyle=orthogonalEdgeStyle;rounded=0;orthogonalLoop=1;jettySize=auto;html=1;exitX=1;exitY=0.5;exitDx=0;exitDy=0;entryX=0;entryY=0.5;entryDx=0;entryDy=0;" parent="1" source="ZfCo_OoU29fC2qvR1BW2-47" target="ZfCo_OoU29fC2qvR1BW2-11" edge="1">
          <mxGeometry relative="1" as="geometry">
            <Array as="points">
              <mxPoint x="395" y="261" />
              <mxPoint x="395" y="274" />
            </Array>
          </mxGeometry>
        </mxCell>
        <mxCell id="ZfCo_OoU29fC2qvR1BW2-47" value="Prototypage des pièces par découpe laser" style="html=1;whiteSpace=wrap;;fontSize=11;fontColor=#333333;align=center;spacing=5;strokeColor=#333333;strokeOpacity=100;fillOpacity=100;rounded=1;absoluteArcSize=1;arcSize=9.6;fillColor=#B9E0A5;strokeWidth=0.6;" parent="1" vertex="1">
          <mxGeometry x="279.5" y="236" width="96" height="50" as="geometry" />
        </mxCell>
        <mxCell id="ZfCo_OoU29fC2qvR1BW2-75" style="edgeStyle=orthogonalEdgeStyle;rounded=0;orthogonalLoop=1;jettySize=auto;html=1;exitX=0.5;exitY=1;exitDx=0;exitDy=0;entryX=0;entryY=0.5;entryDx=0;entryDy=0;" parent="1" source="ZfCo_OoU29fC2qvR1BW2-48" target="ZfCo_OoU29fC2qvR1BW2-52" edge="1">
          <mxGeometry relative="1" as="geometry">
            <Array as="points">
              <mxPoint x="585" y="286" />
              <mxPoint x="585" y="363" />
            </Array>
          </mxGeometry>
        </mxCell>
        <mxCell id="ZfCo_OoU29fC2qvR1BW2-48" value="Assemblage des deux sous-assemblages" style="html=1;whiteSpace=wrap;;fontSize=11;fontColor=#333333;align=center;spacing=5;strokeColor=#333333;strokeOpacity=100;fillOpacity=100;rounded=1;absoluteArcSize=1;arcSize=9.6;fillColor=#B9E0A5;strokeWidth=0.6;" parent="1" vertex="1">
          <mxGeometry x="545" y="222" width="76" height="64" as="geometry" />
        </mxCell>
        <mxCell id="ZfCo_OoU29fC2qvR1BW2-85" style="edgeStyle=orthogonalEdgeStyle;rounded=0;orthogonalLoop=1;jettySize=auto;html=1;exitX=1;exitY=0.5;exitDx=0;exitDy=0;entryX=0;entryY=0.5;entryDx=0;entryDy=0;" parent="1" source="ZfCo_OoU29fC2qvR1BW2-49" target="ZfCo_OoU29fC2qvR1BW2-51" edge="1">
          <mxGeometry relative="1" as="geometry" />
        </mxCell>
        <mxCell id="ZfCo_OoU29fC2qvR1BW2-49" value="&lt;font style=&quot;font-size: 11px&quot;&gt;Établir une communication entre le Raspberry Pi et la carte OpenCR&lt;/font&gt;" style="rounded=1;whiteSpace=wrap;html=1;fillColor=#99CCFF;" parent="1" vertex="1">
          <mxGeometry x="490" y="538" width="120" height="60" as="geometry" />
        </mxCell>
        <mxCell id="ZfCo_OoU29fC2qvR1BW2-94" style="edgeStyle=orthogonalEdgeStyle;rounded=0;orthogonalLoop=1;jettySize=auto;html=1;exitX=1;exitY=0.5;exitDx=0;exitDy=0;" parent="1" source="ZfCo_OoU29fC2qvR1BW2-50" target="ZfCo_OoU29fC2qvR1BW2-93" edge="1">
          <mxGeometry relative="1" as="geometry" />
        </mxCell>
        <mxCell id="ZfCo_OoU29fC2qvR1BW2-50" value="Programmation des équations obtenues avec la cinématique inverse" style="rounded=1;whiteSpace=wrap;html=1;fillColor=#99CCFF;" parent="1" vertex="1">
          <mxGeometry x="276" y="748" width="120" height="60" as="geometry" />
        </mxCell>
        <mxCell id="ZfCo_OoU29fC2qvR1BW2-98" style="edgeStyle=orthogonalEdgeStyle;rounded=0;orthogonalLoop=1;jettySize=auto;html=1;exitX=1;exitY=0.5;exitDx=0;exitDy=0;entryX=0.5;entryY=0;entryDx=0;entryDy=0;" parent="1" source="ZfCo_OoU29fC2qvR1BW2-51" target="ZfCo_OoU29fC2qvR1BW2-50" edge="1">
          <mxGeometry relative="1" as="geometry">
            <Array as="points">
              <mxPoint x="800" y="568" />
              <mxPoint x="800" y="718" />
              <mxPoint x="336" y="718" />
            </Array>
          </mxGeometry>
        </mxCell>
        <mxCell id="ZfCo_OoU29fC2qvR1BW2-51" value="Test de contrôle des moteurs par l&#39;interface" style="rounded=1;whiteSpace=wrap;html=1;fillColor=#5A9DE0;" parent="1" vertex="1">
          <mxGeometry x="660" y="544" width="120" height="48" as="geometry" />
        </mxCell>
        <mxCell id="ZfCo_OoU29fC2qvR1BW2-52" value="Test de la routine d&#39;initialisation" style="html=1;whiteSpace=wrap;;fontSize=11;fontColor=#333333;align=center;spacing=5;strokeColor=#333333;strokeOpacity=100;fillOpacity=100;rounded=1;absoluteArcSize=1;arcSize=9.6;fillColor=#5A9DE0;strokeWidth=0.6;" parent="1" vertex="1">
          <mxGeometry x="675" y="338" width="90" height="50" as="geometry" />
        </mxCell>
        <mxCell id="ZfCo_OoU29fC2qvR1BW2-117" style="edgeStyle=orthogonalEdgeStyle;rounded=0;orthogonalLoop=1;jettySize=auto;html=1;exitX=1;exitY=0.5;exitDx=0;exitDy=0;entryX=0;entryY=0.5;entryDx=0;entryDy=0;" parent="1" source="ZfCo_OoU29fC2qvR1BW2-56" target="ZfCo_OoU29fC2qvR1BW2-59" edge="1">
          <mxGeometry relative="1" as="geometry" />
        </mxCell>
        <mxCell id="ZfCo_OoU29fC2qvR1BW2-56" value="Création d&#39;un modèle Solidworks d&#39;interpolation" style="html=1;whiteSpace=wrap;;fontSize=11;fontColor=#333333;align=center;spacing=5;strokeColor=#333333;strokeOpacity=100;fillOpacity=100;rounded=1;absoluteArcSize=1;arcSize=9.6;fillColor=#EAFFE9;strokeWidth=0.6;" parent="1" vertex="1">
          <mxGeometry x="12" y="628" width="96" height="64" as="geometry" />
        </mxCell>
        <mxCell id="ZfCo_OoU29fC2qvR1BW2-119" style="edgeStyle=orthogonalEdgeStyle;rounded=0;orthogonalLoop=1;jettySize=auto;html=1;exitX=1;exitY=0.5;exitDx=0;exitDy=0;entryX=0;entryY=0.5;entryDx=0;entryDy=0;" parent="1" source="ZfCo_OoU29fC2qvR1BW2-58" target="ZfCo_OoU29fC2qvR1BW2-59" edge="1">
          <mxGeometry relative="1" as="geometry">
            <Array as="points">
              <mxPoint x="135" y="814" />
              <mxPoint x="135" y="660" />
            </Array>
          </mxGeometry>
        </mxCell>
        <mxCell id="ZfCo_OoU29fC2qvR1BW2-58" value="Modélisation de la dynamique du robot avec Motion Genesis" style="html=1;whiteSpace=wrap;;fontSize=11;fontColor=#333333;align=center;spacing=5;strokeColor=#333333;strokeOpacity=100;fillOpacity=100;rounded=1;absoluteArcSize=1;arcSize=9.6;fillColor=#EAFFE9;strokeWidth=0.6;" parent="1" vertex="1">
          <mxGeometry x="12" y="778" width="96" height="72" as="geometry" />
        </mxCell>
        <mxCell id="ZfCo_OoU29fC2qvR1BW2-97" style="edgeStyle=orthogonalEdgeStyle;rounded=0;orthogonalLoop=1;jettySize=auto;html=1;exitX=1;exitY=0.5;exitDx=0;exitDy=0;entryX=0.5;entryY=0;entryDx=0;entryDy=0;" parent="1" source="ZfCo_OoU29fC2qvR1BW2-59" target="ZfCo_OoU29fC2qvR1BW2-50" edge="1">
          <mxGeometry relative="1" as="geometry">
            <Array as="points">
              <mxPoint x="800" y="660" />
              <mxPoint x="800" y="718" />
              <mxPoint x="336" y="718" />
            </Array>
          </mxGeometry>
        </mxCell>
        <mxCell id="ZfCo_OoU29fC2qvR1BW2-59" value="Validation des position des moteurs et de l&#39;effecteur par comparaison des trois méthodes" style="html=1;whiteSpace=wrap;;fontSize=11;fontColor=#333333;align=center;spacing=5;strokeColor=#333333;strokeOpacity=100;fillOpacity=100;rounded=1;absoluteArcSize=1;arcSize=9.6;fillColor=#97D077;strokeWidth=0.6;" parent="1" vertex="1">
          <mxGeometry x="672.0005405405404" y="618" width="96" height="84" as="geometry" />
        </mxCell>
        <mxCell id="ZfCo_OoU29fC2qvR1BW2-100" style="edgeStyle=orthogonalEdgeStyle;rounded=0;orthogonalLoop=1;jettySize=auto;html=1;exitX=1;exitY=0.5;exitDx=0;exitDy=0;entryX=0;entryY=0.5;entryDx=0;entryDy=0;" parent="1" source="ZfCo_OoU29fC2qvR1BW2-93" target="ZfCo_OoU29fC2qvR1BW2-99" edge="1">
          <mxGeometry relative="1" as="geometry">
            <Array as="points">
              <mxPoint x="800" y="778" />
              <mxPoint x="800" y="828" />
              <mxPoint x="185" y="828" />
              <mxPoint x="185" y="888" />
            </Array>
          </mxGeometry>
        </mxCell>
        <mxCell id="ZfCo_OoU29fC2qvR1BW2-93" value="Mesures physique des positions de l&#39;effecteur obtenues grâce aux équations" style="rounded=1;whiteSpace=wrap;html=1;fillColor=#5A9DE0;" parent="1" vertex="1">
          <mxGeometry x="660" y="748" width="120" height="60" as="geometry" />
        </mxCell>
        <mxCell id="ZfCo_OoU29fC2qvR1BW2-102" style="edgeStyle=orthogonalEdgeStyle;rounded=0;orthogonalLoop=1;jettySize=auto;html=1;exitX=1;exitY=0.5;exitDx=0;exitDy=0;" parent="1" source="ZfCo_OoU29fC2qvR1BW2-99" target="ZfCo_OoU29fC2qvR1BW2-101" edge="1">
          <mxGeometry relative="1" as="geometry" />
        </mxCell>
        <mxCell id="ZfCo_OoU29fC2qvR1BW2-99" value="Mise en place d&#39;une boucle d&#39;asservissement des moteurs en fonction des résultats observés" style="rounded=1;whiteSpace=wrap;html=1;fillColor=#99CCFF;" parent="1" vertex="1">
          <mxGeometry x="243" y="858" width="186" height="60" as="geometry" />
        </mxCell>
        <mxCell id="ZfCo_OoU29fC2qvR1BW2-101" value="Tests de la boucle d&#39;asservissement" style="rounded=1;whiteSpace=wrap;html=1;fillColor=#5A9DE0;" parent="1" vertex="1">
          <mxGeometry x="660" y="868" width="120" height="40" as="geometry" />
        </mxCell>
        <mxCell id="ZfCo_OoU29fC2qvR1BW2-113" style="edgeStyle=orthogonalEdgeStyle;rounded=0;orthogonalLoop=1;jettySize=auto;html=1;exitX=1;exitY=0.5;exitDx=0;exitDy=0;entryX=0;entryY=0.5;entryDx=0;entryDy=0;" parent="1" source="ZfCo_OoU29fC2qvR1BW2-111" target="ZfCo_OoU29fC2qvR1BW2-112" edge="1">
          <mxGeometry relative="1" as="geometry" />
        </mxCell>
        <mxCell id="ZfCo_OoU29fC2qvR1BW2-111" value="Programmation d&#39;une routine pour la vision" style="rounded=1;whiteSpace=wrap;html=1;fillColor=#99CCFF;" parent="1" vertex="1">
          <mxGeometry x="445" y="1010" width="120" height="60" as="geometry" />
        </mxCell>
        <mxCell id="ZfCo_OoU29fC2qvR1BW2-126" style="edgeStyle=orthogonalEdgeStyle;rounded=0;orthogonalLoop=1;jettySize=auto;html=1;exitX=0.5;exitY=0;exitDx=0;exitDy=0;entryX=0.5;entryY=1;entryDx=0;entryDy=0;" parent="1" source="ZfCo_OoU29fC2qvR1BW2-112" target="ZfCo_OoU29fC2qvR1BW2-123" edge="1">
          <mxGeometry relative="1" as="geometry" />
        </mxCell>
        <mxCell id="ZfCo_OoU29fC2qvR1BW2-112" value="Test de la routine de vision" style="rounded=1;whiteSpace=wrap;html=1;fillColor=#5A9DE0;" parent="1" vertex="1">
          <mxGeometry x="660" y="1010" width="120" height="60" as="geometry" />
        </mxCell>
        <mxCell id="ZfCo_OoU29fC2qvR1BW2-118" style="edgeStyle=orthogonalEdgeStyle;rounded=0;orthogonalLoop=1;jettySize=auto;html=1;exitX=1;exitY=0.5;exitDx=0;exitDy=0;entryX=0;entryY=0.5;entryDx=0;entryDy=0;" parent="1" source="ZfCo_OoU29fC2qvR1BW2-57" target="ZfCo_OoU29fC2qvR1BW2-59" edge="1">
          <mxGeometry relative="1" as="geometry">
            <Array as="points">
              <mxPoint x="135" y="734" />
              <mxPoint x="135" y="660" />
            </Array>
          </mxGeometry>
        </mxCell>
        <mxCell id="ZfCo_OoU29fC2qvR1BW2-57" value="Calculs analytiques de cinématique directe et inverse" style="html=1;whiteSpace=wrap;;fontSize=11;fontColor=#333333;align=center;spacing=5;strokeColor=#333333;strokeOpacity=100;fillOpacity=100;rounded=1;absoluteArcSize=1;arcSize=9.6;fillColor=#EAFFE9;strokeWidth=0.6;" parent="1" vertex="1">
          <mxGeometry x="12" y="698" width="96" height="72" as="geometry" />
        </mxCell>
        <mxCell id="ZfCo_OoU29fC2qvR1BW2-121" value="Intégration de la caméra sur le robot" style="rounded=1;whiteSpace=wrap;html=1;fillColor=#B9E0A5;" parent="1" vertex="1">
          <mxGeometry x="445" y="936" width="120" height="60" as="geometry" />
        </mxCell>
        <mxCell id="ZfCo_OoU29fC2qvR1BW2-123" value="Test d&#39;intégration de la vision embarquée" style="rounded=1;whiteSpace=wrap;html=1;fillColor=#5A9DE0;" parent="1" vertex="1">
          <mxGeometry x="660" y="936" width="120" height="60" as="geometry" />
        </mxCell>
      </root>
    </mxGraphModel>
  </diagram>
</mxfile>
